<svg id="图层_1" data-name="图层 1" xmlns="http://www.w3.org/2000/svg" viewBox="0 0 932.39 520.89"><title>1</title><path d="M129.76,311.43c19.37-8.64,40.29-12.65,61.29-14.8,20.43-2.09,41.17-3.27,61.71-3.44,21.51-.17,42.83,2,63.16,9.38,18.65,6.74,35.9,16.85,52.28,27.91C384,341.14,399.61,352.35,414,364.85c13.27,11.56,25.55,24.8,33.24,40.79,4.08,8.47,7.25,18.07,7.09,27.56-.19,11.19-6.27,19-16,24-17.76,9.21-38.36,13-58.09,14.83-43.12,4-87.36-1.22-129.39,11.44-1.84.56-1.06,3.45.8,2.89,41.2-12.41,84.59-7.47,126.88-11.18,19.49-1.71,39-5.34,56.94-13.32,8-3.54,15.79-8.33,19.42-16.64,3.31-7.57,2.83-16.26,1-24.14-8.5-36.72-41.62-61.29-70.47-82.16-16.89-12.21-34.3-23.94-53.22-32.8a165.83,165.83,0,0,0-59.48-15.39c-25.27-1.72-51.11.16-76.3,2.39-23.37,2.07-46.62,6.11-68.17,15.72-1.76.79-.24,3.37,1.51,2.59Z" transform="translate(-77.22 -142.83)"/><path d="M127.23,308.33c-19.24,3.74-34.45,18-42.3,35.61a91,91,0,0,0-7.23,28.84c-.91,9.92-1.06,20.59,4.53,29.27,5,7.71,12.86,13,20.47,17.79q14.67,9.3,30,17.55A477.48,477.48,0,0,0,193,464.78a438.28,438.28,0,0,0,75.42,20.64c1.89.34,2.7-2.55.8-2.89A448.41,448.41,0,0,1,150.8,443.37c-18-8.83-36-18.53-52.43-29.94-8.87-6.14-16.28-13.63-17.74-24.78-1.38-10.58.2-22.09,3-32.32,6-21.58,21.61-40.69,44.36-45.11,1.89-.37,1.09-3.26-.8-2.89Z" transform="translate(-77.22 -142.83)"/><path d="M304.23,493.88A611,611,0,0,1,313,662.29c-.17,1.92,2.83,1.91,3,0a613.92,613.92,0,0,0-8.87-169.21c-.37-1.89-3.26-1.09-2.89.8Z" transform="translate(-77.22 -142.83)"/><path d="M688.69,163a1456.06,1456.06,0,0,0,12.74,240.08,1.5,1.5,0,0,0,1.45,1.1,1400.7,1400.7,0,0,1,228.21,6.45c18.51,2,37.72,6.35,56.39,4.81,5.08-.42,13.68-.49,16.61-5.56,1.34-2.32,1.15-5.45,1.22-8,.13-5,.22-10,.3-15,.63-38.09.72-76.32-1.76-114.35a583,583,0,0,0-7.06-61.48c-3.66-21.15-8.85-42-10.4-63.51a1.54,1.54,0,0,0-1.1-1.45c-18.58-3.64-37.64-3-56.48-3l-60-.19c-39.76-.12-79.58-.51-119.28,2.26-20.21,1.41-41.17,2.7-60.2,10.19-1.78.7-1,3.6.8,2.89,17.32-6.82,36.09-8.31,54.49-9.72,19.34-1.48,38.73-2.17,58.12-2.48,38.41-.61,76.84-.11,115.24,0,22,.07,44.76-1.29,66.5,3l-1.1-1.45c1.24,17.26,4.77,34.19,8.06,51.15q5.33,27.48,7.94,55.34c3.34,36.17,3.68,72.57,3.48,108.88q-.08,14-.34,28c-.08,4.31,0,8.67-.28,13-.43,6.91-6.42,7.59-12.19,8.29-17.88,2.18-36.36-2-54.09-4q-54.32-6.21-109-8.14-62-2.2-124.09,1.14l1.45,1.1A1451.39,1451.39,0,0,1,691.69,163c.06-1.93-2.94-1.93-3,0Z" transform="translate(-77.22 -142.83)"/><path d="M780.12,303c-26.74,23.8-22.78,64.45-.62,89.73,12.33,14.07,29.1,23.38,47,28.35,18.64,5.18,40.71,7.53,59.51,2,34.65-10.26,54-51.09,56.48-84.67,1.35-18.47-3.23-37.76-15.46-52-11.91-13.91-29.94-20.63-47.55-23.67a152.28,152.28,0,0,0-69.65,4.27c-17.78,5.37-42,15.68-40.47,38.11.13,1.92,3.13,1.93,3,0-1.42-21.29,22.46-30.55,39.15-35.48a149.84,149.84,0,0,1,55.77-5.5c17.51,1.58,36.14,6,50.14,17.16s21.23,28.61,22.19,46.19c1,18.31-4.11,37-12.27,53.33-7.11,14.2-17.42,27.44-31.61,35.08-16.47,8.87-36.81,8.26-54.79,5.34-17.82-2.89-35.37-9.44-49.44-21-13.79-11.31-24.32-27.32-26.79-45.2-2.53-18.31,3.61-37.48,17.53-49.87,1.44-1.29-.68-3.4-2.12-2.12Z" transform="translate(-77.22 -142.83)"/><path d="M845.7,417.2l8.66,62.15c.27,1.9,3.16,1.09,2.89-.8l-8.66-62.15c-.27-1.9-3.16-1.09-2.89.8Z" transform="translate(-77.22 -142.83)"/><path d="M849.55,464c-33.06,3.89-60.7,23.75-91.43,34.8-1.8.65-1,3.55.8,2.89,30.4-10.93,57.94-30.84,90.63-34.69,1.89-.22,1.92-3.23,0-3Z" transform="translate(-77.22 -142.83)"/><path d="M861.36,478.66A431.16,431.16,0,0,0,899.1,501.5c1.7.91,3.22-1.68,1.51-2.59a431.16,431.16,0,0,1-37.74-22.84c-1.6-1.09-3.11,1.51-1.51,2.59Z" transform="translate(-77.22 -142.83)"/><path d="M694.18,436.58a1030.63,1030.63,0,0,1,26.88,136.7,1.53,1.53,0,0,0,1.9,1.45,12,12,0,0,0,9.22-9.61c.37-1.89-2.52-2.69-2.89-.8a9.17,9.17,0,0,1-7.12,7.52l1.9,1.45a1036.45,1036.45,0,0,0-27-137.5,1.5,1.5,0,0,0-2.89.8Z" transform="translate(-77.22 -142.83)"/><path d="M771.26,451.11A488.93,488.93,0,0,0,914.37,456q16.81-1.92,33.46-5,8.93-1.65,17.78-3.64c5.77-1.29,12-3.16,17.93-1.68,11.52,2.88,13.42,17.46,15.38,27.23a352.71,352.71,0,0,1,5.33,37.59c2.5,27.51,2.41,55.16,2.31,82.76a1.5,1.5,0,0,0,3,0c.09-25.68.17-51.4-1.83-77-1-12.25-2.38-24.48-4.51-36.59-1.73-9.84-2.89-21.93-9.06-30.2-5.34-7.16-13.59-8-21.86-6.59-11.93,2.05-23.67,5.09-35.64,7a483.32,483.32,0,0,1-77.61,6.22,485.31,485.31,0,0,1-87-7.93c-1.89-.34-2.7,2.55-.8,2.89Z" transform="translate(-77.22 -142.83)"/><path d="M736.94,572.95a2295.42,2295.42,0,0,1,239.49,9.34c1.92.18,1.91-2.83,0-3a2295.42,2295.42,0,0,0-239.49-9.34,1.5,1.5,0,0,0,0,3Z" transform="translate(-77.22 -142.83)"/><path d="M779.72,573.88a182.78,182.78,0,0,0-18.14,22.86c-2,3-10.44,12.34-5.14,15.6,1.65,1,3.16-1.58,1.51-2.59-2.9-1.78,21.47-31.15,23.89-33.75,1.31-1.41-.8-3.54-2.12-2.12Z" transform="translate(-77.22 -142.83)"/><path d="M966.25,574.06A161.77,161.77,0,0,1,986,596.61c1.12,1.55,3.72.05,2.59-1.51a165.92,165.92,0,0,0-20.22-23.16c-1.4-1.33-3.52.79-2.12,2.12Z" transform="translate(-77.22 -142.83)"/></svg>