<?xml version="1.0" encoding="iso-8859-1"?>
<!-- Generator: Adobe Illustrator 19.1.0, SVG Export Plug-In . SVG Version: 6.00 Build 0)  -->
<svg version="1.1" id="page1" xmlns="http://www.w3.org/2000/svg" xmlns:xlink="http://www.w3.org/1999/xlink" x="0px" y="0px"
	 viewBox="0 0 800 600" style="enable-background:new 0 0 800 600;" xml:space="preserve">
<line style="fill:none;stroke:#000000;stroke-miterlimit:10;" x1="147.109" y1="218.442" x2="443.839" y2="55.436"/>
<line style="fill:none;stroke:#000000;stroke-miterlimit:10;" x1="147.535" y1="218.733" x2="147.535" y2="457.733"/>
<line style="fill:none;stroke:#000000;stroke-miterlimit:10;" x1="147.535" y1="218.733" x2="167.607" y2="218.442"/>
<line style="fill:none;stroke:#000000;stroke-miterlimit:10;" x1="167.535" y1="218.733" x2="167.535" y2="463.733"/>
<line style="fill:none;stroke:#000000;stroke-miterlimit:10;" x1="167.535" y1="218.733" x2="463.361" y2="55.436"/>
<polygon style="fill:none;stroke:#000000;stroke-miterlimit:10;" points="454.788,231.063 266.222,330.612 263.722,192.45 
	452.289,92.901 "/>
<polygon style="fill:none;stroke:#000000;stroke-miterlimit:10;" points="432.954,234.489 285.556,310.058 285.556,189.024 
	432.954,113.455 "/>
<polygon style="fill:none;stroke:#000000;stroke-miterlimit:10;" points="381.771,346.961 306.52,338.445 452.091,255.506 
	527.342,264.021 "/>
<line style="fill:none;stroke:#000000;stroke-miterlimit:10;" x1="167.607" y1="356.07" x2="383.035" y2="391.209"/>
<line style="fill:none;stroke:#000000;stroke-miterlimit:10;" x1="382.535" y1="390.733" x2="382.535" y2="513.733"/>
<path style="fill:none;stroke:#000000;stroke-miterlimit:10;" d="M553.98,280.323c-20.55-9.067-42.294-19.671-53.18-39.318
	c-9.194-16.592-8.893-36.603-8.351-55.565c0.292-10.217-0.211-26.36,6.986-34.686c6.236-7.214,22.27-12.918,31.321-16.003
	c12.944-4.412,26.786-5.385,40.456-5.788c18.317-0.54,37.224-0.006,54.021,7.32c16.797,7.326,31.141,22.898,31.992,41.203"/>
<path style="fill:none;stroke:#000000;stroke-miterlimit:10;" d="M520.816,144.816c8.95-2.476,18.428-1.957,27.682-1.176
	c22.913,1.935,46.703,5.752,65.35,19.206c9.405,6.786,17.143,15.865,22.354,26.226"/>
<path style="fill:none;stroke:#000000;stroke-miterlimit:10;" d="M509.284,149.663c15.518-2.576,30.721,5.015,44.624,12.373
	c18.077,9.567,36.154,19.135,54.23,28.702c7.868,4.164,15.851,8.411,22.249,14.602s11.109,14.7,10.711,23.593"/>
<line style="fill:none;stroke:#000000;stroke-miterlimit:10;" x1="495.035" y1="178.233" x2="516.035" y2="178.233"/>
<path style="fill:none;stroke:#000000;stroke-miterlimit:10;" d="M503.202,242.208c5.167,2.526,11.149,2.582,16.9,2.589
	c13.805,0.015,27.61,0.03,41.416,0.044c2.048,0.002,4.478-0.203,5.507-1.973"/>
<path style="fill:none;stroke:#000000;stroke-miterlimit:10;" d="M671.44,412.55c-2.97-29.042-8.438-57.762-13.9-86.44
	c-1.561-8.195-3.162-16.513-6.923-23.96c-3.737-7.401-7.396-14.711-8.583-22.916h-89c-0.558,11.213-9.857,21.911-14.542,32.117
	c-4.133,9.005-10.256,21.558-12.665,30.702c-3.429,13.015,0.003,31.72,0.003,45.253"/>
<path style="fill:none;stroke:#000000;stroke-miterlimit:10;" d="M537.393,298.792c-4.969-1.892-9.939-3.783-14.908-5.675
	c-6.984-2.658-13.976-5.32-21.143-7.433c-14.876-4.387-30.364-6.371-45.839-7.397"/>
<path style="fill:none;stroke:#000000;stroke-miterlimit:10;" d="M519.119,383.993c-2.129-5.386-4.991-10.457-8.157-15.306
	c-17.241-26.401-44.046-46.405-74.262-55.421c-9.368-2.795-19.304-4.569-28.917-2.788"/>
<path style="fill:none;stroke:#000000;stroke-miterlimit:10;" d="M526.535,385.733v31c48.275,0,98.473-5.636,146.637-2.37"/>
<path style="fill:none;stroke:#000000;stroke-miterlimit:10;" d="M478.902,435.505c48.344,9.552,98.01,9.392,147.289,9.197
	c18.135-0.072,36.352-0.15,54.268-2.96c6.733-1.056,13.62-2.588,19.172-6.541c4.247-3.024,7.448-7.287,10.256-11.68
	c18.023-28.196,21.935-62.848,25.387-96.134c1.831-17.651,3.661-35.302,5.492-52.953c2.709-0.247,5.419-0.494,8.128-0.741
	c2.728,18.321,4.064,36.85,3.994,55.373c-0.044,11.623-0.647,23.294-2.932,34.69c-2.392,11.929-6.596,23.407-10.783,34.831
	c-12.412,33.86-24.825,67.72-37.237,101.58c-5.472,14.927-11.908,31.038-25.688,38.966c-12.596,7.247-28.199,5.792-42.599,3.84
	c-52.038-7.055-103.58-17.762-154.123-32.017c-6.437-1.816-13.452-4.129-16.892-9.865c-2.998-4.999-2.452-11.271-1.809-17.065
	c1.877-16.911,3.753-33.822,5.63-50.733c5.424-2.255,11.863-1.909,17.014,0.916"/>
<path style="fill:none;stroke:#000000;stroke-miterlimit:10;" d="M527.784,416.514c-18.695,0.075-37.39,0.15-56.085,0.225
	c-8.243,0.033-17.048,0.233-23.84,4.904c-7.546,5.189-10.765,14.618-12.975,23.505c-4.892,19.671-7.158,39.994-6.719,60.26"/>
</svg>
