<?xml version="1.0" encoding="iso-8859-1"?>
<!-- Generator: Adobe Illustrator 19.1.0, SVG Export Plug-In . SVG Version: 6.00 Build 0)  -->
<svg version="1.1" id="page2" xmlns="http://www.w3.org/2000/svg" xmlns:xlink="http://www.w3.org/1999/xlink" x="0px" y="0px"
	 viewBox="0 0 800 600" style="enable-background:new 0 0 800 600;" xml:space="preserve">
<path style="fill:none;stroke:#040000;stroke-miterlimit:10;" d="M508.025,329"/>
<path style="fill:none;stroke:#040000;stroke-miterlimit:10;" d="M512.808,329"/>
<path style="fill:none;stroke:#040000;stroke-miterlimit:10;" d="M522.183,329"/>
<path style="fill:none;stroke:#040000;stroke-miterlimit:10;" d="M531.211,329"/>
<path style="fill:none;stroke:#040000;stroke-miterlimit:10;" d="M542.496,329"/>
<path style="fill:none;stroke:#040000;stroke-miterlimit:10;" d="M550.909,329"/>
<path style="fill:none;stroke:#040000;stroke-miterlimit:10;" d="M187,131C226.807,131,187.645,132.44,187,131c132,0,263-1,395,1
	c-1,66,2,131-1,197c-6,0-11,0-17.044,0"/>
<path style="fill:none;stroke:#040000;stroke-miterlimit:10;" d="M186.986,204.566C187,180.044,187,155.522,187,131
	c0.85-0.085,1.605,0.249,2,1c-0.881,0.207-1.705-0.126-2-1c4.451,0.02-0.162,2.673,0,0c5.213,0.768,10.549-0.607,15.716,0.629"/>
<path style="fill:none;stroke:#040000;stroke-miterlimit:10;" d="M186.908,267.321c0.012-5.732,0.022-11.464,0.031-17.196"/>
<path style="fill:none;stroke:#040000;stroke-miterlimit:10;" d="M186.906,268.706"/>
<path style="fill:none;stroke:#040000;stroke-miterlimit:10;" d="M432.613,328.797c-43.137-0.421-86.271,0.502-129.406,0.721
	c-12.063,0.061-24.126,0.067-36.189-0.026"/>
<path style="fill:none;stroke:#040000;stroke-miterlimit:10;" d="M207,145c119,1,238-1,357,1c0,55,0,111,0,166"/>
<path style="fill:none;stroke:#040000;stroke-miterlimit:10;" d="M214.924,146.51"/>
<path style="fill:none;stroke:#040000;stroke-miterlimit:10;" d="M218.888,146.397"/>
<path style="fill:none;stroke:#040000;stroke-miterlimit:10;" d="M206.984,196.223C207,179,207,163,207,146c5-4,10,0,14.775,0.063"
	/>
<path style="fill:none;stroke:#040000;stroke-miterlimit:10;" d="M206.751,272.803c0.009-1.618,0.018-3.237,0.027-4.855"/>
<path style="fill:none;stroke:#040000;stroke-miterlimit:10;" d="M434.235,312C378,312,323,312,266.838,312"/>
<polygon style="fill:none;stroke:#040000;stroke-miterlimit:10;" points="267,466 160,440 160,261 267,287 "/>
<line style="fill:none;stroke:#040000;stroke-miterlimit:10;" x1="160" y1="440" x2="160" y2="526"/>
<line style="fill:none;stroke:#040000;stroke-miterlimit:10;" x1="267" y1="466" x2="267" y2="531"/>
<line style="fill:none;stroke:#040000;stroke-miterlimit:10;" x1="267" y1="466" x2="327" y2="430"/>
<line style="fill:none;stroke:#040000;stroke-miterlimit:10;" x1="267" y1="440" x2="327" y2="402"/>
<line style="fill:none;stroke:#040000;stroke-miterlimit:10;" x1="327" y1="430" x2="327" y2="504"/>
<path style="fill:none;stroke:#040000;stroke-miterlimit:10;" d="M305.022,214.195c3.382,13.768,1.721,28.561-3.963,41.493
	c-5.835,13.276-12.251,22.404-26.209,22.643c5.957,7.594,7.26,18.017,7.311,27.669c0.102,19.325,6.889,42.697,8.105,61.984
	c0.399,6.331-1.395,11.584-2.544,17.822c-2.369,12.869-8.468,25.029-17.365,34.623"/>
<path style="fill:none;stroke:#040000;stroke-miterlimit:10;" d="M222.921,276.197c-13.381-6.121-26.71-13.728-35.357-25.999
	c-7.055-10.012-13.61-28.348-2.799-38.048c11.589-10.399,24.809-18.762,40.335-21.438c15.099-2.603,30.572-0.866,45.648,1.002
	c7.136,0.884,14.546,1.815,21.087,4.999c7.317,3.562,11.291,9.7,13.187,17.483"/>
<path style="fill:none;stroke:#040000;stroke-miterlimit:10;" d="M285.385,397.144c3.847-6.229,8.206-12.885,15.111-15.321
	c3.698-1.305,7.721-1.225,11.642-1.13c5.637,0.137,11.273,0.273,16.909,0.41c1.548,0.037,3.156,0.09,4.533,0.797
	c1.342,0.69,2.31,1.925,3.172,3.164c8.085,11.621,10.396,26.317,10.611,40.473c0.214,14.156-1.439,28.338-0.312,42.451"/>
<path style="fill:none;stroke:#040000;stroke-miterlimit:10;" d="M319.638,407.872c-2.392,6.736-3.266,14.007-2.539,21.118"/>
<path style="fill:none;stroke:#040000;stroke-miterlimit:10;" d="M282.154,308.838c20.44-11.873,36.585-30.446,53.165-46.962
	c5.101-5.082,10.214-10.153,15.286-15.265"/>
<path style="fill:none;stroke:#040000;stroke-miterlimit:10;" d="M210.935,194.801c-13.765,4.673-27.048,10.764-39.57,18.145
	c-4.631,2.73-9.24,5.707-12.652,9.86c-3.667,4.464-5.721,10-7.712,15.423"/>
<path style="fill:none;stroke:#040000;stroke-miterlimit:10;" d="M221.279,196.541c-22.664,11.701-42.895,28.09-59.044,47.833"/>
<path style="fill:none;stroke:#040000;stroke-miterlimit:10;" d="M228.603,197.432c-12.177,16.99-22.539,35.281-30.853,54.46"/>
<path style="fill:none;stroke:#040000;stroke-miterlimit:10;" d="M258.138,196.102c-6.999,4.967-14.055,9.984-19.859,16.307
	c-10.812,11.777-19.054,29.822-27.099,43.695"/>
<path style="fill:none;stroke:#040000;stroke-miterlimit:10;" d="M271.786,203.646c-14.32,8.664-26.535,20.778-35.319,35.025"/>
<path style="fill:none;stroke:#040000;stroke-miterlimit:10;" d="M277.444,212.483c-6.498,6.986-11.365,15.48-14.107,24.618"/>
<path style="fill:none;stroke:#040000;stroke-miterlimit:10;" d="M270.961,262.401c8.648,0.832,17.36,0.999,26.033,0.498"/>
<path style="fill:none;stroke:#040000;stroke-miterlimit:10;" d="M295.207,203.723c-2.946-0.517-4.946,2.834-6.025,5.624
	c-1.906,4.927-3.812,9.855-5.718,14.782"/>
<path style="fill:none;stroke:#040000;stroke-miterlimit:10;" d="M494.22,275.063C517,261,541,248,564,234.181
	c0,10.62-1.765,1.034,0,0c0,30.819,0,62.819,0,94.025"/>
<path style="fill:none;stroke:#040000;stroke-miterlimit:10;" d="M564,329c0,30,0,60,0,90c-19,11-38,22-57,34c-15,8-28,16-42,24
	c0-8.83,0.123-0.072,0,0c1-62-2-124,1-186c10-4,19-11,27.665-15.612"/>
<line style="fill:none;stroke:#040000;stroke-miterlimit:10;" x1="564" y1="328.207" x2="564" y2="329"/>
<line style="fill:none;stroke:#040000;stroke-miterlimit:10;" x1="465" y1="477" x2="465" y2="526"/>
<line style="fill:none;stroke:#040000;stroke-miterlimit:10;" x1="564" y1="414" x2="564" y2="483"/>
<line style="fill:none;stroke:#040000;stroke-miterlimit:10;" x1="459" y1="477" x2="400" y2="440"/>
<line style="fill:none;stroke:#040000;stroke-miterlimit:10;" x1="400" y1="440" x2="400" y2="504"/>
<line style="fill:none;stroke:#040000;stroke-miterlimit:10;" x1="417" y1="428.99" x2="465" y2="453"/>
<path style="fill:none;stroke:#040000;stroke-miterlimit:10;" d="M521.422,259.005C526,245,523,230,519,216c-8-10-13-23-26-26
	c-22-3-49-3-62.943,17.078"/>
<path style="fill:none;stroke:#040000;stroke-miterlimit:10;" d="M416.056,202.017c-1.235,4.702,7.926,7.664,11.26,6.797
	c-2.947-2.448-7.242-1.599-10.121,0.502C412,214,411,222,412,229c2,12,5,24,9,36c5,12,17,18,29,18c14,0,28-2,42.228-6.458"/>
<path style="fill:none;stroke:#040000;stroke-miterlimit:10;" d="M427.093,188.848c3.852,2.355,7.198,5.535,9.744,9.263"/>
<path style="fill:none;stroke:#040000;stroke-miterlimit:10;" d="M451.151,185.928c0.897,1.998,1.192,4.261,0.84,6.423
	c0.003-3.784,0.006-7.567,0.009-11.351"/>
<path style="fill:none;stroke:#040000;stroke-miterlimit:10;" d="M470,178c0,4.667,0,9.333,0,14"/>
<path style="fill:none;stroke:#040000;stroke-miterlimit:10;" d="M495,178c0,4.667,0,9.333,0,14"/>
<path style="fill:none;stroke:#040000;stroke-miterlimit:10;" d="M518.123,193.134c-2.796,2.567-4.7,6.089-5.316,9.834"/>
<path style="fill:none;stroke:#040000;stroke-miterlimit:10;" d="M530.214,212.243c-3.53,3.11-7.06,6.221-10.59,9.331"/>
<path style="fill:none;stroke:#040000;stroke-miterlimit:10;" d="M412.978,231.932c8.995-2.917,18.614-3.89,28.011-2.832"/>
<path style="fill:none;stroke:#040000;stroke-miterlimit:10;" d="M419.708,261.486c7.81,4.696,17.246,6.628,26.274,5.38"/>
<path style="fill:none;stroke:#040000;stroke-miterlimit:10;" d="M461.113,412.877c1.559-11.259-13.035-20.76-24.361-21.71
	c-2.037-3.905-2.641-8.379-3.116-12.758c-3.415-31.49-1.739-63.527,4.944-94.489"/>
<path style="fill:none;stroke:#040000;stroke-miterlimit:10;" d="M392.689,409.039c2.421-5.799,8.427-9.474,14.579-10.755
	c6.152-1.281,12.524-0.546,18.765,0.194c4.419,0.524,11.983-2.457,16.113-4.113"/>
<path style="fill:none;stroke:#040000;stroke-miterlimit:10;" d="M387,416c0,19.333,0,38.667,0,58"/>
<path style="fill:none;stroke:#040000;stroke-miterlimit:10;" d="M429.82,323.226c-9.811-23.565-36.781-35.428-50.074-57.219"/>
<path style="fill:none;stroke:#040000;stroke-miterlimit:10;" d="M288.178,237.356c0.776-2.138,2.838-3.603,5.019-4.248
	c2.181-0.646,4.498-0.598,6.772-0.544c1.977,0.047,3.954,0.093,5.932,0.14"/>
<path style="fill:none;stroke:#040000;stroke-miterlimit:10;" d="M271.122,262.165c4.063-0.011,8.126-0.022,12.19-0.033
	c1.844-0.005,3.697-0.011,5.52-0.287c1.84-0.279,3.627-0.83,5.405-1.379c2.112-0.652,4.259-1.321,6.085-2.567"/>
<path style="fill:none;stroke:#040000;stroke-miterlimit:10;" d="M277.262,212.186c1.875-3.191,5.053-5.358,8.128-7.418
	c1.778-1.191,3.578-2.394,5.59-3.121c0.964-0.348,1.968-0.584,2.925-0.952"/>
<path style="fill:none;stroke:#040000;stroke-miterlimit:10;" d="M271.667,203.138c1.71-0.893,3.46-1.73,5.308-2.284
	c2.183-0.654,4.464-0.901,6.729-1.144c2.174-0.234,4.362-0.468,6.544-0.332"/>
<path style="fill:none;stroke:#040000;stroke-miterlimit:10;" d="M257.88,196.084c8.24-0.458,16.5-0.543,24.747-0.254"/>
<path style="fill:none;stroke:#040000;stroke-miterlimit:10;" d="M228.19,198.276c3.809-1.389,7.652-2.787,11.667-3.352
	c2.977-0.419,5.999-0.373,8.99-0.674c2.444-0.246,4.864-0.724,7.317-0.856c2.819-0.151,5.656,0.156,8.466-0.117"/>
<path style="fill:none;stroke:#040000;stroke-miterlimit:10;" d="M221.307,196.637c5.54-2.033,11.128-4.078,16.966-4.946
	c3.255-0.484,6.553-0.596,9.842-0.708c4.085-0.139,8.17-0.277,12.255-0.416"/>
<path style="fill:none;stroke:#040000;stroke-miterlimit:10;" d="M221.13,201.583c-1.171,0.031-2.246,0.627-3.244,1.24
	c-5.567,3.414-10.467,7.812-15.072,12.442c-2.619,2.634-5.164,5.363-7.284,8.413c-2.455,3.533-4.303,7.444-6.139,11.335
	c-0.703,1.489-1.412,2.996-1.731,4.611c-0.184,0.933-0.24,1.903-0.607,2.78"/>
</svg>
